<?xml version="1.0" standalone="no"?>
<!DOCTYPE svg PUBLIC "-//W3C//DTD SVG 20010904//EN"
 "http://www.w3.org/TR/2001/REC-SVG-20010904/DTD/svg10.dtd">
<svg version="1.0" xmlns="http://www.w3.org/2000/svg"
 width="512.000000pt" height="512.000000pt" viewBox="0 0 512.000000 512.000000"
 preserveAspectRatio="xMidYMid meet">
<metadata>
Created by potrace 1.11, written by Peter Selinger 2001-2013
</metadata>
<g transform="translate(0.000000,512.000000) scale(0.100000,-0.100000)"
fill="#000000" stroke="none">
<path d="M2200 4386 c-176 -23 -456 -82 -544 -116 l-26 -10 0 -200 c0 -110 3
-200 7 -200 4 0 53 18 110 40 119 47 331 103 453 121 126 18 349 15 440 -6
210 -48 361 -179 400 -347 44 -191 -53 -424 -304 -737 l-91 -113 -3 401 -2
401 -245 0 -245 0 0 -337 c0 -194 9 -510 20 -741 18 -368 19 -410 5 -490 -9
-48 -18 -156 -22 -240 l-6 -152 245 0 246 0 5 233 c8 428 24 456 537 952 303
294 382 441 383 720 0 94 -4 149 -17 200 -81 315 -332 525 -726 607 -124 26
-466 33 -620 14z"/>
<path d="M2155 1167 c-3 -7 -4 -116 -3 -242 l3 -230 240 0 240 0 0 240 0 240
-238 3 c-187 2 -239 0 -242 -11z"/>
</g>
</svg>
