<?xml version="1.0" standalone="no"?>
<!DOCTYPE svg PUBLIC "-//W3C//DTD SVG 20010904//EN"
 "http://www.w3.org/TR/2001/REC-SVG-20010904/DTD/svg10.dtd">
<svg version="1.0" xmlns="http://www.w3.org/2000/svg"
 width="512.000000pt" height="512.000000pt" viewBox="0 0 512.000000 512.000000"
 preserveAspectRatio="xMidYMid meet">
<metadata>
Created by potrace 1.11, written by Peter Selinger 2001-2013
</metadata>
<g transform="translate(0.000000,512.000000) scale(0.100000,-0.100000)"
fill="#000000" stroke="none">
<path d="M2183 4395 c-128 -17 -273 -46 -425 -86 l-118 -32 0 -203 c0 -112 2
-204 5 -204 2 0 37 13 78 29 340 135 710 180 957 116 151 -39 278 -136 334
-254 25 -55 31 -81 34 -156 7 -148 -38 -275 -161 -463 -56 -86 -216 -294 -235
-306 -4 -2 -6 175 -4 395 l3 399 -245 0 -246 0 0 -407 c0 -236 7 -551 16 -746
14 -276 14 -349 4 -395 -7 -31 -15 -139 -17 -239 l-5 -183 246 0 246 0 0 203
c0 427 22 472 429 877 433 430 486 523 486 840 0 134 -3 165 -23 230 -35 111
-87 202 -160 281 -151 163 -358 263 -627 304 -123 18 -427 18 -572 0z"/>
<path d="M2160 945 l0 -235 245 0 245 0 0 235 0 235 -245 0 -245 0 0 -235z"/>
</g>
</svg>
